<svg xmlns="http://www.w3.org/2000/svg"  viewBox="0 0 50 50" width="50px" height="50px" style="filter:invert(1);"><path d="M 13.599609 4 C 8.8620649 4 5 7.8620649 5 12.599609 L 5 30.599609 L 5 31.400391 L 5 38.400391 C 5 43.137935 8.8620649 47 13.599609 47 L 36.400391 47 C 41.137935 47 45 43.137935 45 38.400391 L 45 31.400391 L 45 30.599609 L 45 12.599609 C 45 7.8620649 41.137935 4 36.400391 4 L 13.599609 4 z M 27.054688 14.080078 L 29.03125 14.080078 L 29.03125 25.517578 C 29.03125 28.538578 27.286922 30.306641 24.419922 30.306641 C 21.761659 30.306641 19.893613 28.659317 19.892578 26.232422 L 21.857422 26.232422 C 21.901422 27.561422 22.91225 28.484375 24.40625 28.484375 C 26.09825 28.484375 27.054688 27.451812 27.054688 25.507812 L 27.054688 14.080078 z M 7 36.902344 C 8.5794631 38.792759 10.952573 40 13.599609 40 L 36.400391 40 C 39.047427 40 41.420537 38.792759 43 36.902344 L 43 38.400391 C 43 42.056846 40.056846 45 36.400391 45 L 13.599609 45 C 9.9431546 45 7 42.056846 7 38.400391 L 7 36.902344 z"/></svg>